<?xml version="1.0" encoding="utf-8"?>
<!-- Svg Vector Icons : http://www.onlinewebfonts.com/icon -->

<svg version="1.1" xmlns="http://www.w3.org/2000/svg" xmlns:xlink="http://www.w3.org/1999/xlink" x="0px" y="0px" viewBox="0 0 1000 1000" enable-background="new 0 0 1000 1000" xml:space="preserve">
<metadata> Svg Vector Icons : http://www.onlinewebfonts.com/icon </metadata>
<g><g transform="translate(0.000000,511.000000) scale(0.100000,-0.100000)"><path d="M3752.7,4990.5C2112.8,4804.4,869.6,3418.1,869.6,1776.2c0-871.1,310.8-1644,907.9-2261.5c464.2-478.5,1026.5-787.2,1709.4-934.5c267.9-59.3,995.8-55.2,1273.9,8.2c860.8,192.2,1570.4,674.8,2050.9,1394.5c781.1,1173.7,699.3,2746.1-198.3,3833.9C5916,4665.4,4826.2,5111.2,3752.7,4990.5z M4482.7,3806.6c171.8-104.3,208.6-333.3,73.6-474.4c-83.8-87.9-104.3-96.1-327.2-118.6c-642-65.4-1081.7-325.1-1296.4-766.8c-75.6-151.3-104.3-190.2-171.8-229c-100.2-57.3-202.4-59.3-296.5-8.2c-167.7,87.9-208.6,265.8-108.4,484.6c184,406.9,488.7,709.5,914,907.9C3705.7,3806.6,4315,3908.8,4482.7,3806.6z"/><path d="M6922.1-1160.1c-691.1-151.3-1228.9-668.6-1404.7-1349.5c-67.5-263.8-71.6-605.3-8.2-869c104.3-433.5,384.4-846.5,748.4-1096c141.1-98.1,413-220.8,593-267.9c237.2-63.4,648.2-63.4,889.5,0c828.1,216.7,1390.4,936.5,1390.4,1778.9c0,846.5-548,1562.2-1367.9,1783C7535.5-1119.2,7149-1108.9,6922.1-1160.1z"/></g></g>
</svg>