<?xml version="1.0" encoding="utf-8"?>
<!-- Svg Vector Icons : http://www.onlinewebfonts.com/icon -->
<svg version="1.1" xmlns="http://www.w3.org/2000/svg" xmlns:xlink="http://www.w3.org/1999/xlink" x="0px" y="0px" viewBox="0 0 1000 1000" enable-background="new 0 0 1000 1000" xml:space="preserve">
<metadata> Svg Vector Icons : http://www.onlinewebfonts.com/icon </metadata>
<g><g><path fill="#ffffff" d="M535,154.4c0-9.5-3.5-17.7-10.4-24.6c-6.9-6.9-15.1-10.4-24.6-10.4s-17.7,3.5-24.6,10.4c-6.9,6.9-10.4,15.1-10.4,24.6s3.5,17.7,10.4,24.6c6.9,6.9,15.1,10.4,24.6,10.4s17.7-3.5,24.6-10.4C531.5,172.1,535,163.9,535,154.4z M990,661.9v192.5c0,8-3.6,13.5-10.9,16.4c-2.9,0.7-5.1,1.1-6.6,1.1c-4.7,0-8.9-1.6-12.6-4.9l-50.9-50.9c-43.4,52.1-101.4,93.4-174.2,123.9s-151,45.7-234.9,45.7c-83.9,0-162.1-15.2-234.9-45.7c-72.7-30.4-130.8-71.7-174.2-123.9L40.1,867c-3.3,3.3-7.5,4.9-12.6,4.9c-1.5,0-3.6-0.4-6.6-1.1c-7.3-2.9-10.9-8.4-10.9-16.4V661.9c0-5.1,1.6-9.3,4.9-12.6s7.5-4.9,12.6-4.9H220c8,0,13.5,3.6,16.4,10.9c2.9,6.9,1.6,13.3-3.8,19.1l-54.7,54.7c24.4,33.2,59,61.2,103.6,83.9c44.7,22.8,94.2,37.8,148.5,45.1V504.4H325c-9.5,0-17.7-3.5-24.6-10.4c-6.9-6.9-10.4-15.1-10.4-24.6v-70c0-9.5,3.5-17.7,10.4-24.6c6.9-6.9,15.1-10.4,24.6-10.4h105v-89.1c-21.1-12.4-38.1-29.3-50.9-50.6c-12.8-21.3-19.1-44.8-19.1-70.3c0-38.6,13.7-71.6,41-99c27.3-27.3,60.3-41,99-41c38.6,0,71.6,13.7,99,41c27.3,27.3,41,60.3,41,99c0,25.5-6.4,48.9-19.1,70.3c-12.8,21.3-29.7,38.2-50.9,50.6v89.1h105c9.5,0,17.7,3.5,24.6,10.4c6.9,6.9,10.4,15.1,10.4,24.6v70c0,9.5-3.5,17.7-10.4,24.6c-6.9,6.9-15.1,10.4-24.6,10.4H570v353.8c54.3-7.3,103.8-22.3,148.5-45.1c44.7-22.8,79.2-50.8,103.6-83.9l-54.7-54.7c-5.5-5.8-6.7-12.2-3.8-19.1c2.9-7.3,8.4-10.9,16.4-10.9h192.5c5.1,0,9.3,1.6,12.6,4.9C988.4,652.6,990,656.8,990,661.9z"/></g></g>
</svg>